%TF.GenerationSoftware,KiCad,Pcbnew,9.0.0*%
%TF.CreationDate,2025-03-15T18:46:04+01:00*%
%TF.ProjectId,VGA_adapter,5647415f-6164-4617-9074-65722e6b6963,rev?*%
%TF.SameCoordinates,Original*%
%TF.FileFunction,Soldermask,Top*%
%TF.FilePolarity,Negative*%
%FSLAX46Y46*%
G04 Gerber Fmt 4.6, Leading zero omitted, Abs format (unit mm)*
G04 Created by KiCad (PCBNEW 9.0.0) date 2025-03-15 18:46:04*
%MOMM*%
%LPD*%
G01*
G04 APERTURE LIST*
G04 Aperture macros list*
%AMRoundRect*
0 Rectangle with rounded corners*
0 $1 Rounding radius*
0 $2 $3 $4 $5 $6 $7 $8 $9 X,Y pos of 4 corners*
0 Add a 4 corners polygon primitive as box body*
4,1,4,$2,$3,$4,$5,$6,$7,$8,$9,$2,$3,0*
0 Add four circle primitives for the rounded corners*
1,1,$1+$1,$2,$3*
1,1,$1+$1,$4,$5*
1,1,$1+$1,$6,$7*
1,1,$1+$1,$8,$9*
0 Add four rect primitives between the rounded corners*
20,1,$1+$1,$2,$3,$4,$5,0*
20,1,$1+$1,$4,$5,$6,$7,0*
20,1,$1+$1,$6,$7,$8,$9,0*
20,1,$1+$1,$8,$9,$2,$3,0*%
G04 Aperture macros list end*
%ADD10C,1.600000*%
%ADD11R,1.600000X1.600000*%
%ADD12C,4.000000*%
%ADD13RoundRect,0.237500X0.237500X-0.250000X0.237500X0.250000X-0.237500X0.250000X-0.237500X-0.250000X0*%
%ADD14R,1.700000X1.700000*%
%ADD15O,1.700000X1.700000*%
%ADD16RoundRect,0.237500X-0.237500X0.250000X-0.237500X-0.250000X0.237500X-0.250000X0.237500X0.250000X0*%
%ADD17RoundRect,0.237500X-0.250000X-0.237500X0.250000X-0.237500X0.250000X0.237500X-0.250000X0.237500X0*%
G04 APERTURE END LIST*
D10*
%TO.C,J3*%
X121670331Y-108690000D03*
X121670331Y-111460000D03*
X121670331Y-114230000D03*
X121670331Y-117000000D03*
X121670331Y-119770000D03*
X121670331Y-122540000D03*
X121670331Y-125310000D03*
X124510331Y-107305000D03*
X124510331Y-110075000D03*
X124510331Y-112845000D03*
X124510331Y-115615000D03*
X124510331Y-118385000D03*
X124510331Y-121155000D03*
X124510331Y-123925000D03*
D11*
X124510331Y-126695000D03*
D12*
X123090331Y-133650000D03*
X123090331Y-100350000D03*
%TD*%
D13*
%TO.C,RB2*%
X149542000Y-119229500D03*
X149542000Y-121054500D03*
%TD*%
%TO.C,RB1*%
X151542000Y-119229500D03*
X151542000Y-121054500D03*
%TD*%
%TO.C,RG1*%
X134874000Y-128714843D03*
X134874000Y-130539843D03*
%TD*%
D14*
%TO.C,J2*%
X157700000Y-138960000D03*
D15*
X157700000Y-141500000D03*
X155160000Y-138960000D03*
X155160000Y-141500000D03*
X152620000Y-138960000D03*
X152620000Y-141500000D03*
X150080000Y-138960000D03*
X150080000Y-141500000D03*
X147540000Y-138960000D03*
X147540000Y-141500000D03*
X145000000Y-138960000D03*
X145000000Y-141500000D03*
X142460000Y-138960000D03*
X142460000Y-141500000D03*
X139920000Y-138960000D03*
X139920000Y-141500000D03*
X137380000Y-138960000D03*
X137380000Y-141500000D03*
X134840000Y-138960000D03*
X134840000Y-141500000D03*
X132300000Y-138960000D03*
X132300000Y-141500000D03*
X129760000Y-138960000D03*
X129760000Y-141500000D03*
X127220000Y-138960000D03*
X127220000Y-141500000D03*
X124680000Y-138960000D03*
X124680000Y-141500000D03*
X122140000Y-138960000D03*
X122140000Y-141500000D03*
X119600000Y-138960000D03*
X119600000Y-141500000D03*
X117060000Y-138960000D03*
X117060000Y-141500000D03*
X114520000Y-138960000D03*
X114520000Y-141500000D03*
X111980000Y-138960000D03*
X111980000Y-141500000D03*
X109440000Y-138960000D03*
X109440000Y-141500000D03*
%TD*%
D16*
%TO.C,RR4*%
X135000000Y-122531500D03*
X135000000Y-124356500D03*
%TD*%
D13*
%TO.C,RR3*%
X137414000Y-124356500D03*
X137414000Y-122531500D03*
%TD*%
%TO.C,RR2*%
X139414000Y-124356500D03*
X139414000Y-122531500D03*
%TD*%
%TO.C,RR1*%
X141414000Y-124356500D03*
X141414000Y-122531500D03*
%TD*%
D16*
%TO.C,RG4*%
X128500000Y-128675000D03*
X128500000Y-130500000D03*
%TD*%
D13*
%TO.C,RG3*%
X130500000Y-130500000D03*
X130500000Y-128675000D03*
%TD*%
%TO.C,RG2*%
X132500000Y-130500000D03*
X132500000Y-128675000D03*
%TD*%
D16*
%TO.C,RB4*%
X145542000Y-119229500D03*
X145542000Y-121054500D03*
%TD*%
D13*
%TO.C,RB3*%
X147542000Y-121054500D03*
X147542000Y-119229500D03*
%TD*%
D17*
%TO.C,R26*%
X129643500Y-105410000D03*
X131468500Y-105410000D03*
%TD*%
%TO.C,R25*%
X129643500Y-103378000D03*
X131468500Y-103378000D03*
%TD*%
M02*
