M48
; DRILL file {KiCad 9.0.0} date 2025-03-15T18:46:02+0100
; FORMAT={-:-/ absolute / metric / decimal}
; #@! TF.CreationDate,2025-03-15T18:46:02+01:00
; #@! TF.GenerationSoftware,Kicad,Pcbnew,9.0.0
; #@! TF.FileFunction,Plated,1,2,PTH
FMAT,2
METRIC
; #@! TA.AperFunction,Plated,PTH,ComponentDrill
T1C1.000
; #@! TA.AperFunction,Plated,PTH,ComponentDrill
T2C3.200
%
G90
G05
T1
X109.44Y-138.96
X109.44Y-141.5
X111.98Y-138.96
X111.98Y-141.5
X114.52Y-138.96
X114.52Y-141.5
X117.06Y-138.96
X117.06Y-141.5
X119.6Y-138.96
X119.6Y-141.5
X121.67Y-108.69
X121.67Y-111.46
X121.67Y-114.23
X121.67Y-117.0
X121.67Y-119.77
X121.67Y-122.54
X121.67Y-125.31
X122.14Y-138.96
X122.14Y-141.5
X124.51Y-107.305
X124.51Y-110.075
X124.51Y-112.845
X124.51Y-115.615
X124.51Y-118.385
X124.51Y-121.155
X124.51Y-123.925
X124.51Y-126.695
X124.68Y-138.96
X124.68Y-141.5
X127.22Y-138.96
X127.22Y-141.5
X129.76Y-138.96
X129.76Y-141.5
X132.3Y-138.96
X132.3Y-141.5
X134.84Y-138.96
X134.84Y-141.5
X137.38Y-138.96
X137.38Y-141.5
X139.92Y-138.96
X139.92Y-141.5
X142.46Y-138.96
X142.46Y-141.5
X145.0Y-138.96
X145.0Y-141.5
X147.54Y-138.96
X147.54Y-141.5
X150.08Y-138.96
X150.08Y-141.5
X152.62Y-138.96
X152.62Y-141.5
X155.16Y-138.96
X155.16Y-141.5
X157.7Y-138.96
X157.7Y-141.5
T2
X123.09Y-100.35
X123.09Y-133.65
M30
