%TF.GenerationSoftware,KiCad,Pcbnew,9.0.0*%
%TF.CreationDate,2025-03-15T18:46:04+01:00*%
%TF.ProjectId,VGA_adapter,5647415f-6164-4617-9074-65722e6b6963,rev?*%
%TF.SameCoordinates,Original*%
%TF.FileFunction,Soldermask,Bot*%
%TF.FilePolarity,Negative*%
%FSLAX46Y46*%
G04 Gerber Fmt 4.6, Leading zero omitted, Abs format (unit mm)*
G04 Created by KiCad (PCBNEW 9.0.0) date 2025-03-15 18:46:04*
%MOMM*%
%LPD*%
G01*
G04 APERTURE LIST*
%ADD10C,1.600000*%
%ADD11R,1.600000X1.600000*%
%ADD12C,4.000000*%
%ADD13R,1.700000X1.700000*%
%ADD14O,1.700000X1.700000*%
G04 APERTURE END LIST*
D10*
%TO.C,J3*%
X121670331Y-108690000D03*
X121670331Y-111460000D03*
X121670331Y-114230000D03*
X121670331Y-117000000D03*
X121670331Y-119770000D03*
X121670331Y-122540000D03*
X121670331Y-125310000D03*
X124510331Y-107305000D03*
X124510331Y-110075000D03*
X124510331Y-112845000D03*
X124510331Y-115615000D03*
X124510331Y-118385000D03*
X124510331Y-121155000D03*
X124510331Y-123925000D03*
D11*
X124510331Y-126695000D03*
D12*
X123090331Y-133650000D03*
X123090331Y-100350000D03*
%TD*%
D13*
%TO.C,J2*%
X157700000Y-138960000D03*
D14*
X157700000Y-141500000D03*
X155160000Y-138960000D03*
X155160000Y-141500000D03*
X152620000Y-138960000D03*
X152620000Y-141500000D03*
X150080000Y-138960000D03*
X150080000Y-141500000D03*
X147540000Y-138960000D03*
X147540000Y-141500000D03*
X145000000Y-138960000D03*
X145000000Y-141500000D03*
X142460000Y-138960000D03*
X142460000Y-141500000D03*
X139920000Y-138960000D03*
X139920000Y-141500000D03*
X137380000Y-138960000D03*
X137380000Y-141500000D03*
X134840000Y-138960000D03*
X134840000Y-141500000D03*
X132300000Y-138960000D03*
X132300000Y-141500000D03*
X129760000Y-138960000D03*
X129760000Y-141500000D03*
X127220000Y-138960000D03*
X127220000Y-141500000D03*
X124680000Y-138960000D03*
X124680000Y-141500000D03*
X122140000Y-138960000D03*
X122140000Y-141500000D03*
X119600000Y-138960000D03*
X119600000Y-141500000D03*
X117060000Y-138960000D03*
X117060000Y-141500000D03*
X114520000Y-138960000D03*
X114520000Y-141500000D03*
X111980000Y-138960000D03*
X111980000Y-141500000D03*
X109440000Y-138960000D03*
X109440000Y-141500000D03*
%TD*%
M02*
