%TF.GenerationSoftware,KiCad,Pcbnew,9.0.0*%
%TF.CreationDate,2025-03-15T19:38:14+01:00*%
%TF.ProjectId,VGA_adapter,5647415f-6164-4617-9074-65722e6b6963,rev?*%
%TF.SameCoordinates,Original*%
%TF.FileFunction,Plated,1,2,PTH,Drill*%
%TF.FilePolarity,Positive*%
%FSLAX46Y46*%
G04 Gerber Fmt 4.6, Leading zero omitted, Abs format (unit mm)*
G04 Created by KiCad (PCBNEW 9.0.0) date 2025-03-15 19:38:14*
%MOMM*%
%LPD*%
G01*
G04 APERTURE LIST*
%TA.AperFunction,ComponentDrill*%
%ADD10C,1.000000*%
%TD*%
%TA.AperFunction,ComponentDrill*%
%ADD11C,3.200000*%
%TD*%
G04 APERTURE END LIST*
D10*
%TO.C,J2*%
X109440000Y-138960000D03*
X109440000Y-141500000D03*
X111980000Y-138960000D03*
X111980000Y-141500000D03*
X114520000Y-138960000D03*
X114520000Y-141500000D03*
X117060000Y-138960000D03*
X117060000Y-141500000D03*
%TO.C,J3*%
X117602000Y-110220000D03*
X117602000Y-112510000D03*
X117602000Y-114800000D03*
X117602000Y-117090000D03*
X117602000Y-119380000D03*
X119502000Y-109075000D03*
X119502000Y-111365000D03*
X119502000Y-113655000D03*
X119502000Y-115945000D03*
X119502000Y-118235000D03*
%TO.C,J2*%
X119600000Y-138960000D03*
X119600000Y-141500000D03*
%TO.C,J3*%
X121402000Y-110220000D03*
X121402000Y-112510000D03*
X121402000Y-114800000D03*
X121402000Y-117090000D03*
X121402000Y-119380000D03*
%TO.C,J2*%
X122140000Y-138960000D03*
X122140000Y-141500000D03*
X124680000Y-138960000D03*
X124680000Y-141500000D03*
X127220000Y-138960000D03*
X127220000Y-141500000D03*
X129760000Y-138960000D03*
X129760000Y-141500000D03*
X132300000Y-138960000D03*
X132300000Y-141500000D03*
X134840000Y-138960000D03*
X134840000Y-141500000D03*
X137380000Y-138960000D03*
X137380000Y-141500000D03*
X139920000Y-138960000D03*
X139920000Y-141500000D03*
X142460000Y-138960000D03*
X142460000Y-141500000D03*
X145000000Y-138960000D03*
X145000000Y-141500000D03*
X147540000Y-138960000D03*
X147540000Y-141500000D03*
X150080000Y-138960000D03*
X150080000Y-141500000D03*
X152620000Y-138960000D03*
X152620000Y-141500000D03*
X155160000Y-138960000D03*
X155160000Y-141500000D03*
X157700000Y-138960000D03*
X157700000Y-141500000D03*
D11*
%TO.C,J3*%
X119512000Y-102035000D03*
X119512000Y-127035000D03*
M02*
